<svg width="16" height="16" viewBox="0 0 16 16" fill="none" xmlns="http://www.w3.org/2000/svg">
  <!-- Simple book icon -->
  <path d="M3 2C3 1.44772 3.44772 1 4 1H12C12.5523 1 13 1.44772 13 2V14C13 14.5523 12.5523 15 12 15H4C3.44772 15 3 14.5523 3 14V2Z" fill="#4A90E2"/>
  
  <!-- Book pages -->
  <path d="M3.5 2.5C3.5 2.22386 3.72386 2 4 2H12C12.2761 2 12.5 2.22386 12.5 2.5V13.5C12.5 13.7761 12.2761 14 12 14H4C3.72386 14 3.5 13.7761 3.5 13.5V2.5Z" fill="#F8F9FA"/>
  
  <!-- Text lines -->
  <rect x="5" y="4" width="6" height="1" rx="0.5" fill="#6C757D"/>
  <rect x="5" y="6" width="4" height="1" rx="0.5" fill="#6C757D"/>
  <rect x="5" y="8" width="5" height="1" rx="0.5" fill="#6C757D"/>
  <rect x="5" y="10" width="3" height="1" rx="0.5" fill="#6C757D"/>
  
  <!-- Bookmark -->
  <path d="M11 2L11 6L9.5 4.5L8 6L8 2H11Z" fill="#E74C3C"/>
</svg>
